# xmcd
#
# Track frame offsets: 
#        150
#        16396
#        34441
#
# Disc length: 835 seconds
#
# Revision: 0
# Processed by: cddbd v1.5.2PL0 Copyright (c) Steve Scherf et al.
# Submitted via: ExactAudioCopy v1.3
#
DISCID=1f034103
DTITLE=møl - møl
DYEAR=2014
DGENRE=Blackgaze
TTITLE0=Sundrowned
TTITLE1=Airy
TTITLE2=Makhachkala
EXTD=
EXTT0=
EXTT1=
EXTT2=
PLAYORDER=
